<mxfile host="app.diagrams.net" modified="2024-01-30T14:59:32.995Z" agent="Mozilla/5.0 (Windows NT 10.0; Win64; x64) AppleWebKit/537.36 (KHTML, like Gecko) Chrome/121.0.0.0 Safari/537.36" etag="Zt8tCvzCUMuGytDE2UOv" version="23.0.2" type="github">
  <diagram name="第 1 页" id="XvF2aFDsFJZ21GPqTzCf">
    <mxGraphModel dx="1434" dy="4253" grid="1" gridSize="10" guides="1" tooltips="1" connect="1" arrows="1" fold="1" page="1" pageScale="1" pageWidth="827" pageHeight="1169" math="0" shadow="0">
      <root>
        <mxCell id="0" />
        <mxCell id="1" parent="0" />
        <mxCell id="URVeLnV5q5m96tv4H8P8-46" value="转化" style="edgeStyle=orthogonalEdgeStyle;rounded=0;orthogonalLoop=1;jettySize=auto;html=1;" edge="1" parent="1" source="URVeLnV5q5m96tv4H8P8-2" target="URVeLnV5q5m96tv4H8P8-3">
          <mxGeometry relative="1" as="geometry" />
        </mxCell>
        <mxCell id="URVeLnV5q5m96tv4H8P8-2" value="信息" style="rounded=0;whiteSpace=wrap;html=1;fillColor=#fff2cc;strokeColor=#d6b656;" vertex="1" parent="1">
          <mxGeometry x="680" y="-2760" width="80" height="40" as="geometry" />
        </mxCell>
        <mxCell id="URVeLnV5q5m96tv4H8P8-47" value="比对" style="edgeStyle=orthogonalEdgeStyle;rounded=0;orthogonalLoop=1;jettySize=auto;html=1;" edge="1" parent="1" source="URVeLnV5q5m96tv4H8P8-3" target="URVeLnV5q5m96tv4H8P8-10">
          <mxGeometry relative="1" as="geometry" />
        </mxCell>
        <mxCell id="URVeLnV5q5m96tv4H8P8-3" value="电信号" style="rounded=0;whiteSpace=wrap;html=1;" vertex="1" parent="1">
          <mxGeometry x="680" y="-2840" width="80" height="40" as="geometry" />
        </mxCell>
        <mxCell id="URVeLnV5q5m96tv4H8P8-49" value="不吻合，&lt;br&gt;进行调整&lt;br&gt;修正或消除误差" style="edgeStyle=orthogonalEdgeStyle;rounded=0;orthogonalLoop=1;jettySize=auto;html=1;entryX=0;entryY=0.5;entryDx=0;entryDy=0;" edge="1" parent="1" source="URVeLnV5q5m96tv4H8P8-10" target="URVeLnV5q5m96tv4H8P8-14">
          <mxGeometry x="0.0024" relative="1" as="geometry">
            <Array as="points">
              <mxPoint x="599.5" y="-2920" />
              <mxPoint x="599.5" y="-3178" />
            </Array>
            <mxPoint as="offset" />
          </mxGeometry>
        </mxCell>
        <mxCell id="URVeLnV5q5m96tv4H8P8-54" value="吻合，&lt;br&gt;按预测方式行动" style="edgeStyle=orthogonalEdgeStyle;rounded=0;orthogonalLoop=1;jettySize=auto;html=1;entryX=1;entryY=0.5;entryDx=0;entryDy=0;" edge="1" parent="1" source="URVeLnV5q5m96tv4H8P8-10" target="URVeLnV5q5m96tv4H8P8-52">
          <mxGeometry x="0.0024" relative="1" as="geometry">
            <Array as="points">
              <mxPoint x="839.5" y="-2920" />
              <mxPoint x="839.5" y="-2660" />
            </Array>
            <mxPoint as="offset" />
          </mxGeometry>
        </mxCell>
        <mxCell id="URVeLnV5q5m96tv4H8P8-10" value="是否吻合？" style="rhombus;whiteSpace=wrap;html=1;fontFamily=Helvetica;fontSize=11;fontColor=default;" vertex="1" parent="1">
          <mxGeometry x="680" y="-2960" width="80" height="80" as="geometry" />
        </mxCell>
        <mxCell id="URVeLnV5q5m96tv4H8P8-18" value="双向链接" style="edgeStyle=orthogonalEdgeStyle;rounded=0;orthogonalLoop=1;jettySize=auto;html=1;entryX=0;entryY=0.5;entryDx=0;entryDy=0;strokeColor=default;startArrow=classic;startFill=1;" edge="1" parent="1" source="URVeLnV5q5m96tv4H8P8-13" target="URVeLnV5q5m96tv4H8P8-15">
          <mxGeometry relative="1" as="geometry" />
        </mxCell>
        <mxCell id="URVeLnV5q5m96tv4H8P8-34" style="edgeStyle=orthogonalEdgeStyle;rounded=0;orthogonalLoop=1;jettySize=auto;html=1;entryX=0.5;entryY=0;entryDx=0;entryDy=0;" edge="1" parent="1" source="URVeLnV5q5m96tv4H8P8-13" target="URVeLnV5q5m96tv4H8P8-14">
          <mxGeometry relative="1" as="geometry">
            <Array as="points">
              <mxPoint x="480" y="-3238" />
              <mxPoint x="720" y="-3238" />
            </Array>
          </mxGeometry>
        </mxCell>
        <mxCell id="URVeLnV5q5m96tv4H8P8-13" value="神经元A" style="rounded=0;whiteSpace=wrap;html=1;" vertex="1" parent="1">
          <mxGeometry x="440" y="-3318" width="80" height="40" as="geometry" />
        </mxCell>
        <mxCell id="URVeLnV5q5m96tv4H8P8-42" value="等同" style="edgeStyle=orthogonalEdgeStyle;rounded=0;orthogonalLoop=1;jettySize=auto;html=1;fillColor=#f8cecc;strokeColor=#b85450;" edge="1" parent="1" source="URVeLnV5q5m96tv4H8P8-14" target="URVeLnV5q5m96tv4H8P8-41">
          <mxGeometry relative="1" as="geometry" />
        </mxCell>
        <mxCell id="URVeLnV5q5m96tv4H8P8-65" value="等同" style="edgeStyle=orthogonalEdgeStyle;rounded=0;orthogonalLoop=1;jettySize=auto;html=1;entryX=0;entryY=0.5;entryDx=0;entryDy=0;" edge="1" parent="1" source="URVeLnV5q5m96tv4H8P8-14" target="URVeLnV5q5m96tv4H8P8-64">
          <mxGeometry relative="1" as="geometry" />
        </mxCell>
        <mxCell id="URVeLnV5q5m96tv4H8P8-14" value="神经网络" style="rounded=0;whiteSpace=wrap;html=1;fillColor=#f8cecc;strokeColor=#b85450;" vertex="1" parent="1">
          <mxGeometry x="680" y="-3198" width="80" height="40" as="geometry" />
        </mxCell>
        <mxCell id="URVeLnV5q5m96tv4H8P8-35" style="edgeStyle=orthogonalEdgeStyle;rounded=0;orthogonalLoop=1;jettySize=auto;html=1;entryX=0.5;entryY=0;entryDx=0;entryDy=0;" edge="1" parent="1" source="URVeLnV5q5m96tv4H8P8-15" target="URVeLnV5q5m96tv4H8P8-14">
          <mxGeometry relative="1" as="geometry" />
        </mxCell>
        <mxCell id="URVeLnV5q5m96tv4H8P8-38" value="" style="edgeStyle=orthogonalEdgeStyle;rounded=0;orthogonalLoop=1;jettySize=auto;html=1;" edge="1" parent="1" source="URVeLnV5q5m96tv4H8P8-15" target="URVeLnV5q5m96tv4H8P8-23">
          <mxGeometry relative="1" as="geometry" />
        </mxCell>
        <mxCell id="URVeLnV5q5m96tv4H8P8-40" value="单向连接" style="edgeLabel;html=1;align=center;verticalAlign=middle;resizable=0;points=[];" vertex="1" connectable="0" parent="URVeLnV5q5m96tv4H8P8-38">
          <mxGeometry x="-0.1139" relative="1" as="geometry">
            <mxPoint as="offset" />
          </mxGeometry>
        </mxCell>
        <mxCell id="URVeLnV5q5m96tv4H8P8-15" value="神经元B" style="rounded=0;whiteSpace=wrap;html=1;" vertex="1" parent="1">
          <mxGeometry x="600" y="-3318" width="80" height="40" as="geometry" />
        </mxCell>
        <mxCell id="URVeLnV5q5m96tv4H8P8-17" value="储存" style="edgeStyle=orthogonalEdgeStyle;rounded=0;orthogonalLoop=1;jettySize=auto;html=1;" edge="1" parent="1" source="URVeLnV5q5m96tv4H8P8-16" target="URVeLnV5q5m96tv4H8P8-13">
          <mxGeometry relative="1" as="geometry" />
        </mxCell>
        <mxCell id="URVeLnV5q5m96tv4H8P8-16" value="信息A" style="rounded=0;whiteSpace=wrap;html=1;fillColor=#fff2cc;strokeColor=#d6b656;" vertex="1" parent="1">
          <mxGeometry x="440" y="-3400" width="80" height="40" as="geometry" />
        </mxCell>
        <mxCell id="URVeLnV5q5m96tv4H8P8-22" value="储存" style="edgeStyle=orthogonalEdgeStyle;rounded=0;orthogonalLoop=1;jettySize=auto;html=1;" edge="1" parent="1" source="URVeLnV5q5m96tv4H8P8-21" target="URVeLnV5q5m96tv4H8P8-15">
          <mxGeometry relative="1" as="geometry" />
        </mxCell>
        <mxCell id="URVeLnV5q5m96tv4H8P8-21" value="信息B" style="rounded=0;whiteSpace=wrap;html=1;fillColor=#fff2cc;strokeColor=#d6b656;" vertex="1" parent="1">
          <mxGeometry x="600" y="-3400" width="80" height="40" as="geometry" />
        </mxCell>
        <mxCell id="URVeLnV5q5m96tv4H8P8-36" style="edgeStyle=orthogonalEdgeStyle;rounded=0;orthogonalLoop=1;jettySize=auto;html=1;entryX=0.5;entryY=0;entryDx=0;entryDy=0;" edge="1" parent="1" source="URVeLnV5q5m96tv4H8P8-23" target="URVeLnV5q5m96tv4H8P8-14">
          <mxGeometry relative="1" as="geometry" />
        </mxCell>
        <mxCell id="URVeLnV5q5m96tv4H8P8-39" value="无连接" style="edgeStyle=orthogonalEdgeStyle;rounded=0;orthogonalLoop=1;jettySize=auto;html=1;endArrow=none;endFill=0;dashed=1;" edge="1" parent="1" source="URVeLnV5q5m96tv4H8P8-23" target="URVeLnV5q5m96tv4H8P8-25">
          <mxGeometry relative="1" as="geometry" />
        </mxCell>
        <mxCell id="URVeLnV5q5m96tv4H8P8-23" value="..." style="rounded=0;whiteSpace=wrap;html=1;" vertex="1" parent="1">
          <mxGeometry x="759" y="-3318" width="80" height="40" as="geometry" />
        </mxCell>
        <mxCell id="URVeLnV5q5m96tv4H8P8-37" style="edgeStyle=orthogonalEdgeStyle;rounded=0;orthogonalLoop=1;jettySize=auto;html=1;entryX=0.5;entryY=0;entryDx=0;entryDy=0;" edge="1" parent="1" source="URVeLnV5q5m96tv4H8P8-25" target="URVeLnV5q5m96tv4H8P8-14">
          <mxGeometry relative="1" as="geometry">
            <Array as="points">
              <mxPoint x="959" y="-3238" />
              <mxPoint x="720" y="-3238" />
            </Array>
          </mxGeometry>
        </mxCell>
        <mxCell id="URVeLnV5q5m96tv4H8P8-56" value="组成" style="edgeLabel;html=1;align=center;verticalAlign=middle;resizable=0;points=[];" vertex="1" connectable="0" parent="URVeLnV5q5m96tv4H8P8-37">
          <mxGeometry x="0.7461" y="-2" relative="1" as="geometry">
            <mxPoint x="3" y="-1" as="offset" />
          </mxGeometry>
        </mxCell>
        <mxCell id="URVeLnV5q5m96tv4H8P8-25" value="神经元N" style="rounded=0;whiteSpace=wrap;html=1;" vertex="1" parent="1">
          <mxGeometry x="919" y="-3318" width="80" height="40" as="geometry" />
        </mxCell>
        <mxCell id="URVeLnV5q5m96tv4H8P8-29" value="储存" style="edgeStyle=orthogonalEdgeStyle;rounded=0;orthogonalLoop=1;jettySize=auto;html=1;" edge="1" parent="1" source="URVeLnV5q5m96tv4H8P8-26" target="URVeLnV5q5m96tv4H8P8-25">
          <mxGeometry relative="1" as="geometry" />
        </mxCell>
        <mxCell id="URVeLnV5q5m96tv4H8P8-26" value="信息N" style="rounded=0;whiteSpace=wrap;html=1;fillColor=#fff2cc;strokeColor=#d6b656;" vertex="1" parent="1">
          <mxGeometry x="919" y="-3400" width="80" height="40" as="geometry" />
        </mxCell>
        <mxCell id="URVeLnV5q5m96tv4H8P8-28" value="" style="edgeStyle=orthogonalEdgeStyle;rounded=0;orthogonalLoop=1;jettySize=auto;html=1;" edge="1" parent="1" source="URVeLnV5q5m96tv4H8P8-27" target="URVeLnV5q5m96tv4H8P8-23">
          <mxGeometry relative="1" as="geometry" />
        </mxCell>
        <mxCell id="URVeLnV5q5m96tv4H8P8-27" value="..." style="rounded=0;whiteSpace=wrap;html=1;fillColor=#fff2cc;strokeColor=#d6b656;" vertex="1" parent="1">
          <mxGeometry x="759" y="-3400" width="80" height="40" as="geometry" />
        </mxCell>
        <mxCell id="URVeLnV5q5m96tv4H8P8-44" value="产生" style="edgeStyle=orthogonalEdgeStyle;rounded=0;orthogonalLoop=1;jettySize=auto;html=1;" edge="1" parent="1" source="URVeLnV5q5m96tv4H8P8-41" target="URVeLnV5q5m96tv4H8P8-43">
          <mxGeometry relative="1" as="geometry" />
        </mxCell>
        <mxCell id="URVeLnV5q5m96tv4H8P8-66" value="特征" style="edgeStyle=orthogonalEdgeStyle;rounded=0;orthogonalLoop=1;jettySize=auto;html=1;entryX=0;entryY=0.5;entryDx=0;entryDy=0;" edge="1" parent="1" source="URVeLnV5q5m96tv4H8P8-41" target="URVeLnV5q5m96tv4H8P8-63">
          <mxGeometry relative="1" as="geometry" />
        </mxCell>
        <mxCell id="URVeLnV5q5m96tv4H8P8-89" style="edgeStyle=orthogonalEdgeStyle;rounded=0;orthogonalLoop=1;jettySize=auto;html=1;entryX=1;entryY=0.5;entryDx=0;entryDy=0;" edge="1" parent="1" source="URVeLnV5q5m96tv4H8P8-41" target="URVeLnV5q5m96tv4H8P8-85">
          <mxGeometry relative="1" as="geometry" />
        </mxCell>
        <mxCell id="URVeLnV5q5m96tv4H8P8-91" value="规则" style="edgeLabel;html=1;align=center;verticalAlign=middle;resizable=0;points=[];" vertex="1" connectable="0" parent="URVeLnV5q5m96tv4H8P8-89">
          <mxGeometry x="-0.5" relative="1" as="geometry">
            <mxPoint as="offset" />
          </mxGeometry>
        </mxCell>
        <mxCell id="URVeLnV5q5m96tv4H8P8-41" value="心智模型" style="rounded=0;whiteSpace=wrap;html=1;fillColor=#f8cecc;strokeColor=#b85450;" vertex="1" parent="1">
          <mxGeometry x="680" y="-3120" width="80" height="40" as="geometry" />
        </mxCell>
        <mxCell id="URVeLnV5q5m96tv4H8P8-45" value="比对" style="edgeStyle=orthogonalEdgeStyle;rounded=0;orthogonalLoop=1;jettySize=auto;html=1;" edge="1" parent="1" source="URVeLnV5q5m96tv4H8P8-43" target="URVeLnV5q5m96tv4H8P8-10">
          <mxGeometry relative="1" as="geometry" />
        </mxCell>
        <mxCell id="URVeLnV5q5m96tv4H8P8-60" value="构建" style="edgeStyle=orthogonalEdgeStyle;rounded=0;orthogonalLoop=1;jettySize=auto;html=1;entryX=0;entryY=0.5;entryDx=0;entryDy=0;" edge="1" parent="1" source="URVeLnV5q5m96tv4H8P8-43" target="URVeLnV5q5m96tv4H8P8-59">
          <mxGeometry relative="1" as="geometry" />
        </mxCell>
        <mxCell id="URVeLnV5q5m96tv4H8P8-43" value="预测信号" style="rounded=0;whiteSpace=wrap;html=1;" vertex="1" parent="1">
          <mxGeometry x="680" y="-3040" width="80" height="40" as="geometry" />
        </mxCell>
        <mxCell id="URVeLnV5q5m96tv4H8P8-53" value="获取" style="edgeStyle=orthogonalEdgeStyle;rounded=0;orthogonalLoop=1;jettySize=auto;html=1;fillColor=#fff2cc;strokeColor=#d6b656;" edge="1" parent="1" source="URVeLnV5q5m96tv4H8P8-52" target="URVeLnV5q5m96tv4H8P8-2">
          <mxGeometry relative="1" as="geometry" />
        </mxCell>
        <mxCell id="URVeLnV5q5m96tv4H8P8-52" value="真实世界" style="rounded=0;whiteSpace=wrap;html=1;fillColor=#fff2cc;strokeColor=#d6b656;" vertex="1" parent="1">
          <mxGeometry x="680" y="-2680" width="80" height="40" as="geometry" />
        </mxCell>
        <mxCell id="URVeLnV5q5m96tv4H8P8-62" value="存在100秒误差" style="edgeStyle=orthogonalEdgeStyle;rounded=0;orthogonalLoop=1;jettySize=auto;html=1;entryX=0.5;entryY=1;entryDx=0;entryDy=0;" edge="1" parent="1" source="URVeLnV5q5m96tv4H8P8-59" target="URVeLnV5q5m96tv4H8P8-52">
          <mxGeometry x="0.0016" relative="1" as="geometry">
            <Array as="points">
              <mxPoint x="959.5" y="-2620" />
              <mxPoint x="720.5" y="-2620" />
            </Array>
            <mxPoint as="offset" />
          </mxGeometry>
        </mxCell>
        <mxCell id="URVeLnV5q5m96tv4H8P8-59" value="幻象世界" style="rounded=0;whiteSpace=wrap;html=1;" vertex="1" parent="1">
          <mxGeometry x="919" y="-3040" width="80" height="40" as="geometry" />
        </mxCell>
        <mxCell id="URVeLnV5q5m96tv4H8P8-69" value="表现" style="edgeStyle=orthogonalEdgeStyle;rounded=0;orthogonalLoop=1;jettySize=auto;html=1;" edge="1" parent="1" source="URVeLnV5q5m96tv4H8P8-63" target="URVeLnV5q5m96tv4H8P8-68">
          <mxGeometry relative="1" as="geometry" />
        </mxCell>
        <mxCell id="URVeLnV5q5m96tv4H8P8-63" value="可塑性" style="rounded=0;whiteSpace=wrap;html=1;" vertex="1" parent="1">
          <mxGeometry x="919" y="-3120" width="80" height="40" as="geometry" />
        </mxCell>
        <mxCell id="URVeLnV5q5m96tv4H8P8-67" value="特征" style="edgeStyle=orthogonalEdgeStyle;rounded=0;orthogonalLoop=1;jettySize=auto;html=1;" edge="1" parent="1" source="URVeLnV5q5m96tv4H8P8-64" target="URVeLnV5q5m96tv4H8P8-63">
          <mxGeometry relative="1" as="geometry" />
        </mxCell>
        <mxCell id="URVeLnV5q5m96tv4H8P8-64" value="叶贝斯大脑" style="rounded=0;whiteSpace=wrap;html=1;fillColor=#f8cecc;strokeColor=#b85450;" vertex="1" parent="1">
          <mxGeometry x="919" y="-3198" width="80" height="40" as="geometry" />
        </mxCell>
        <mxCell id="URVeLnV5q5m96tv4H8P8-73" value="通过" style="edgeStyle=orthogonalEdgeStyle;rounded=0;orthogonalLoop=1;jettySize=auto;html=1;" edge="1" parent="1" source="URVeLnV5q5m96tv4H8P8-68" target="URVeLnV5q5m96tv4H8P8-70">
          <mxGeometry relative="1" as="geometry" />
        </mxCell>
        <mxCell id="URVeLnV5q5m96tv4H8P8-68" value="用进废退" style="rounded=0;whiteSpace=wrap;html=1;" vertex="1" parent="1">
          <mxGeometry x="1079.5" y="-3120" width="80" height="40" as="geometry" />
        </mxCell>
        <mxCell id="URVeLnV5q5m96tv4H8P8-71" value="训练" style="edgeStyle=orthogonalEdgeStyle;rounded=0;orthogonalLoop=1;jettySize=auto;html=1;" edge="1" parent="1" source="URVeLnV5q5m96tv4H8P8-70" target="URVeLnV5q5m96tv4H8P8-64">
          <mxGeometry relative="1" as="geometry" />
        </mxCell>
        <mxCell id="URVeLnV5q5m96tv4H8P8-70" value="信息" style="rounded=0;whiteSpace=wrap;html=1;" vertex="1" parent="1">
          <mxGeometry x="1079.5" y="-3198" width="80" height="40" as="geometry" />
        </mxCell>
        <mxCell id="URVeLnV5q5m96tv4H8P8-93" value="不利于" style="edgeStyle=orthogonalEdgeStyle;rounded=0;orthogonalLoop=1;jettySize=auto;html=1;" edge="1" parent="1" source="URVeLnV5q5m96tv4H8P8-74" target="URVeLnV5q5m96tv4H8P8-81">
          <mxGeometry relative="1" as="geometry" />
        </mxCell>
        <mxCell id="URVeLnV5q5m96tv4H8P8-74" value="一成不变" style="rounded=0;whiteSpace=wrap;html=1;" vertex="1" parent="1">
          <mxGeometry x="440" y="-3198" width="80" height="40" as="geometry" />
        </mxCell>
        <mxCell id="URVeLnV5q5m96tv4H8P8-95" value="" style="edgeStyle=orthogonalEdgeStyle;rounded=0;orthogonalLoop=1;jettySize=auto;html=1;" edge="1" parent="1" source="URVeLnV5q5m96tv4H8P8-80" target="URVeLnV5q5m96tv4H8P8-85">
          <mxGeometry relative="1" as="geometry" />
        </mxCell>
        <mxCell id="URVeLnV5q5m96tv4H8P8-96" value="原理" style="edgeLabel;html=1;align=center;verticalAlign=middle;resizable=0;points=[];" vertex="1" connectable="0" parent="URVeLnV5q5m96tv4H8P8-95">
          <mxGeometry relative="1" as="geometry">
            <mxPoint as="offset" />
          </mxGeometry>
        </mxCell>
        <mxCell id="URVeLnV5q5m96tv4H8P8-102" value="尝试" style="edgeStyle=orthogonalEdgeStyle;rounded=0;orthogonalLoop=1;jettySize=auto;html=1;" edge="1" parent="1" source="URVeLnV5q5m96tv4H8P8-80" target="URVeLnV5q5m96tv4H8P8-99">
          <mxGeometry relative="1" as="geometry" />
        </mxCell>
        <mxCell id="URVeLnV5q5m96tv4H8P8-80" value="无聊" style="rounded=0;whiteSpace=wrap;html=1;" vertex="1" parent="1">
          <mxGeometry x="280" y="-3120" width="80" height="40" as="geometry" />
        </mxCell>
        <mxCell id="URVeLnV5q5m96tv4H8P8-105" value="避免" style="edgeStyle=orthogonalEdgeStyle;rounded=0;orthogonalLoop=1;jettySize=auto;html=1;entryX=0.5;entryY=0;entryDx=0;entryDy=0;" edge="1" parent="1" source="URVeLnV5q5m96tv4H8P8-81" target="URVeLnV5q5m96tv4H8P8-80">
          <mxGeometry relative="1" as="geometry" />
        </mxCell>
        <mxCell id="URVeLnV5q5m96tv4H8P8-81" value="生存" style="rounded=0;whiteSpace=wrap;html=1;" vertex="1" parent="1">
          <mxGeometry x="280" y="-3198" width="80" height="40" as="geometry" />
        </mxCell>
        <mxCell id="URVeLnV5q5m96tv4H8P8-90" value="排斥" style="edgeStyle=orthogonalEdgeStyle;rounded=0;orthogonalLoop=1;jettySize=auto;html=1;" edge="1" parent="1" source="URVeLnV5q5m96tv4H8P8-85" target="URVeLnV5q5m96tv4H8P8-74">
          <mxGeometry relative="1" as="geometry" />
        </mxCell>
        <mxCell id="URVeLnV5q5m96tv4H8P8-98" style="edgeStyle=orthogonalEdgeStyle;rounded=0;orthogonalLoop=1;jettySize=auto;html=1;entryX=0;entryY=0.5;entryDx=0;entryDy=0;dashed=1;" edge="1" parent="1" source="URVeLnV5q5m96tv4H8P8-85" target="URVeLnV5q5m96tv4H8P8-10">
          <mxGeometry relative="1" as="geometry">
            <Array as="points">
              <mxPoint x="480" y="-2920" />
            </Array>
          </mxGeometry>
        </mxCell>
        <mxCell id="URVeLnV5q5m96tv4H8P8-85" value="需要不完全&lt;br&gt;符合预测" style="rounded=0;whiteSpace=wrap;html=1;" vertex="1" parent="1">
          <mxGeometry x="440" y="-3120" width="80" height="40" as="geometry" />
        </mxCell>
        <mxCell id="URVeLnV5q5m96tv4H8P8-100" style="edgeStyle=orthogonalEdgeStyle;rounded=0;orthogonalLoop=1;jettySize=auto;html=1;entryX=0.5;entryY=1;entryDx=0;entryDy=0;" edge="1" parent="1" source="URVeLnV5q5m96tv4H8P8-99" target="URVeLnV5q5m96tv4H8P8-85">
          <mxGeometry relative="1" as="geometry" />
        </mxCell>
        <mxCell id="URVeLnV5q5m96tv4H8P8-101" value="满足" style="edgeLabel;html=1;align=center;verticalAlign=middle;resizable=0;points=[];" vertex="1" connectable="0" parent="URVeLnV5q5m96tv4H8P8-100">
          <mxGeometry x="-0.5556" relative="1" as="geometry">
            <mxPoint as="offset" />
          </mxGeometry>
        </mxCell>
        <mxCell id="URVeLnV5q5m96tv4H8P8-99" value="15%新鲜感" style="rounded=0;whiteSpace=wrap;html=1;" vertex="1" parent="1">
          <mxGeometry x="280" y="-3040" width="80" height="40" as="geometry" />
        </mxCell>
      </root>
    </mxGraphModel>
  </diagram>
</mxfile>
